<svg width="96" height="74" viewBox="0 0 96 74" fill="none" xmlns="http://www.w3.org/2000/svg">
<path d="M63.9701 50.4224C59.1357 50.1029 55.3348 46.0689 55.3348 41.1377C55.3348 40.9731 55.338 40.8085 55.3476 40.6439V40.6665C55.338 40.5116 55.3316 40.3309 55.3316 40.1469C55.3316 35.2254 59.1389 31.2042 63.9445 30.9105H63.9701C68.7981 31.1752 72.6119 35.1866 72.6119 40.0985C72.6119 40.2986 72.6055 40.4954 72.5927 40.6923V40.6665C72.6023 40.8278 72.6087 41.0183 72.6087 41.2087C72.6087 46.1238 68.7981 50.1417 63.9925 50.4192H63.9669L63.9701 50.4224ZM32.0843 50.4224C27.2499 50.1029 23.4489 46.0689 23.4489 41.1377C23.4489 40.9731 23.4521 40.8085 23.4617 40.6439V40.6665C23.4521 40.5116 23.4457 40.3309 23.4457 40.1469C23.4457 35.2254 27.2531 31.2042 32.0587 30.9105H32.0843C36.9122 31.1752 40.726 35.1866 40.726 40.0985C40.726 40.2986 40.7196 40.4954 40.7068 40.6923V40.6665C40.7164 40.8214 40.7228 41.0021 40.7228 41.1861C40.7228 46.1076 36.9154 50.1288 32.1098 50.4224H32.0843ZM81.2505 6.21567C75.6098 3.5306 69.0573 1.40708 62.1976 0.177498L61.7209 0.106499C61.7049 0.103272 61.6857 0.100045 61.6665 0.100045C61.5545 0.100045 61.4586 0.161362 61.4074 0.251725C60.6587 1.57812 59.846 3.2337 59.1134 4.93123L58.9758 5.28945C55.6803 4.75696 51.8794 4.4536 48.008 4.4536C44.1366 4.4536 40.3357 4.75696 36.6275 5.34109L37.0402 5.28622C36.1764 3.25306 35.3509 1.60071 34.4391 0L34.5702 0.248498C34.5158 0.154908 34.4167 0.0968164 34.3047 0.0968164C34.2887 0.0968164 34.2695 0.0968177 34.2535 0.100045C26.9171 1.40062 20.3646 3.52092 14.2408 6.41576L14.7239 6.20921C14.6696 6.2318 14.6248 6.27053 14.596 6.31894C5.46469 19.3602 0 35.5868 0 53.1011C0 56.0282 0.153574 58.9165 0.451125 61.763L0.42233 61.408C0.431928 61.5016 0.47992 61.579 0.547109 61.6339C7.39397 66.8007 15.3542 70.9638 23.9448 73.6973L24.5079 73.8522C24.5335 73.8619 24.5655 73.8651 24.5975 73.8651C24.6999 73.8651 24.7895 73.8167 24.8439 73.7425C26.5556 71.4189 28.1841 68.7855 29.5951 66.0229L29.7454 65.7002C29.7646 65.6615 29.7774 65.6131 29.7774 65.5614C29.7774 65.4291 29.6942 65.3194 29.5791 65.2742H29.5759C26.658 64.1382 24.1912 62.928 21.8428 61.5403L22.0891 61.6758C21.9963 61.621 21.9355 61.5209 21.9355 61.408C21.9355 61.3079 21.9835 61.2176 22.0571 61.1627C22.5594 60.7819 23.065 60.3882 23.5449 59.988C23.5961 59.946 23.6633 59.9202 23.7336 59.9202C23.7784 59.9202 23.82 59.9299 23.8552 59.946H23.852C30.9164 63.3701 39.2095 65.371 47.9632 65.371C56.7169 65.371 65.0132 63.3701 72.4167 59.7976L72.0744 59.946C72.1128 59.9267 72.1544 59.917 72.2024 59.917C72.2728 59.917 72.3399 59.9428 72.3911 59.9848C72.8711 60.3849 73.3734 60.7851 73.8821 61.1627C73.9557 61.2208 74.0037 61.3112 74.0037 61.4112C74.0037 61.5242 73.9429 61.621 73.8565 61.6758C71.7416 62.9506 69.2749 64.1576 66.7057 65.1548L66.3697 65.271C66.2546 65.3162 66.1714 65.4291 66.1714 65.5582C66.1714 65.6098 66.1842 65.6582 66.2066 65.7002C67.8095 68.7984 69.4348 71.4253 71.2329 73.92L71.1049 73.736C71.1593 73.8135 71.2521 73.8651 71.3513 73.8651C71.3833 73.8651 71.4153 73.8587 71.4441 73.8522C80.6106 70.9735 88.5836 66.8104 95.6481 61.4854L95.4401 61.6371C95.5105 61.5855 95.5553 61.5048 95.5649 61.4144C95.8432 58.8843 96 55.9475 96 52.9752C96 35.4997 90.5225 19.315 81.2089 6.07044L81.3752 6.32217C81.3496 6.27053 81.3048 6.22858 81.2537 6.20599L81.2505 6.21567Z" fill="#F4F4F4"/>
</svg>
