<svg width="96" height="90" viewBox="0 0 96 90" fill="none" xmlns="http://www.w3.org/2000/svg">
<path fill-rule="evenodd" clip-rule="evenodd" d="M13.0909 10.5017H34.9091C39.7292 10.5017 43.6364 15.2034 43.6364 21.0034V68.2609C43.6364 71.161 41.6828 73.5118 39.2727 73.5118H13.0909C10.681 73.5118 8.72727 71.161 8.72727 68.2609V15.7525C8.72727 12.8526 10.681 10.5017 13.0909 10.5017ZM56.7273 84.0135C55.1974 84.0135 53.7286 83.6974 52.3636 83.1171V84.0135C52.3636 86.9135 50.41 89.2643 48 89.2643C45.59 89.2643 43.6364 86.9135 43.6364 84.0135V83.1171C42.2714 83.6974 40.8026 84.0135 39.2727 84.0135H13.0909C5.86102 84.0135 0 76.9611 0 68.2609V15.7525C0 7.05267 5.86102 0 13.0909 0H34.9091C40.1223 0 44.8019 2.75018 48 7.11058C51.1981 2.75018 55.8777 0 61.0909 0H82.9091C90.1392 0 96 7.05267 96 15.7525V68.2609C96 76.9611 90.1392 84.0135 82.9091 84.0135H56.7273ZM52.3636 21.0034V68.2609C52.3636 71.161 54.3172 73.5118 56.7273 73.5118H82.9091C85.3191 73.5118 87.2727 71.161 87.2727 68.2609V15.7525C87.2727 12.8526 85.3191 10.5017 82.9091 10.5017H61.0909C56.2708 10.5017 52.3636 15.2034 52.3636 21.0034ZM17.4545 21.0034H34.9091V31.505H17.4545V21.0034ZM61.0909 21.0034H78.5455V31.505H61.0909V21.0034ZM78.5455 36.7559H61.0909V47.2576H78.5455V36.7559ZM17.4545 36.7559H34.9091V47.2576H17.4545V36.7559ZM78.5455 52.5084H61.0909V63.0101H78.5455V52.5084ZM17.4545 52.5084H34.9091V63.0101H17.4545V52.5084Z" fill="#F4F4F4"/>
</svg>
