<svg width="428" height="428" viewBox="0 0 428 428" fill="none" xmlns="http://www.w3.org/2000/svg">
<g filter="url(#filter0_b_133_275)">
<rect width="428" height="428" rx="50" fill="black" fill-opacity="0.01"/>
<rect x="5" y="5" width="418" height="418" rx="45" stroke="#1B1B1B" stroke-width="10"/>
<g filter="url(#filter1_d_133_275)">
<mask id="path-3-outside-1_133_275" maskUnits="userSpaceOnUse" x="59.3672" y="99.6562" width="309" height="233" fill="black">
<rect fill="white" x="59.3672" y="99.6562" width="309" height="233"/>
<path d="M126.5 257.611C126.5 257.276 126.5 256.942 126.667 256.44C121.659 257.443 116.818 258.614 111.977 259.785C107.971 260.621 103.964 261.625 99.958 262.795C98.9564 262.963 98.1218 263.632 97.2871 263.966C93.9485 264.635 90.7768 265.304 87.6051 264.301C87.4382 264.301 87.2712 264.301 87.2712 264.301C86.4365 263.632 85.7688 262.963 84.9342 262.294C85.6019 261.457 86.1027 260.454 86.9374 260.119C92.613 256.942 98.7895 255.102 105.133 253.429C112.478 251.59 119.99 249.75 127.502 247.91C128.503 247.576 129.004 247.074 129.338 246.071C130.506 240.719 132.009 235.367 133.01 230.015C133.511 228.008 133.177 225.666 132.843 223.492C130.172 208.941 121.659 199.241 107.971 193.889C100.292 190.879 92.4461 189.206 84.4334 187.534C79.9263 186.53 75.4191 185.192 70.912 183.854C69.4096 183.52 68.0742 182.684 66.9057 181.68C64.2348 179.673 63.567 176.83 65.4033 173.987C66.9056 171.812 68.7419 169.805 70.7451 168.133C77.0884 163.116 84.2665 159.436 91.4445 156.091C108.638 147.896 126.667 141.708 145.029 136.356C168.233 129.331 191.77 123.645 215.474 119.129C235.84 115.283 256.038 111.77 276.404 108.091C279.242 107.589 282.08 106.92 284.917 106.251C285.919 106.084 286.754 105.582 287.755 105.248C292.262 103.241 296.77 103.073 301.444 105.08C304.114 106.418 304.114 108.091 302.278 110.6C300.609 112.941 298.439 112.941 295.935 113.108C293.598 113.443 291.261 114.279 288.924 114.781C277.406 116.788 265.887 118.795 254.369 120.802C214.306 127.492 174.743 135.352 136.015 147.896C121.826 152.579 107.47 157.596 94.1154 164.453C89.6083 166.795 85.435 169.638 81.0948 172.314C79.9263 173.15 78.9247 174.321 78.09 175.325C76.2538 177.666 76.7546 179.506 79.4254 180.342C82.5971 181.513 85.7689 182.349 88.9405 183.018C97.454 185.192 106.134 187.032 114.481 190.377C121.158 193.053 127.669 196.398 132.51 201.917C134.513 204.258 136.182 206.934 138.018 209.61C138.686 207.269 139.354 204.76 139.854 202.252C143.694 187.534 147.199 172.649 152.04 158.098C153.042 155.255 154.377 152.244 155.546 149.401C156.381 146.725 158.384 145.554 160.888 145.554C162.891 145.554 165.061 145.722 166.897 146.223C169.568 147.06 170.069 148.23 169.568 150.906C168.4 156.426 167.231 161.945 166.063 167.631C165.395 170.307 165.061 172.983 164.393 175.659C163.559 179.339 162.39 183.018 161.555 186.865C157.382 205.095 153.376 223.325 149.203 241.555C149.036 241.889 149.036 242.391 148.869 242.893C150.204 242.726 151.373 242.391 152.541 242.224C160.387 240.719 168.066 239.213 175.912 237.875C179.417 237.206 182.923 237.206 186.428 238.21C187.597 238.712 188.932 239.381 189.934 240.217C191.269 241.388 191.269 242.726 189.767 243.896C189.099 244.398 188.431 244.9 187.764 245.234C181.587 248.245 175.411 250.753 168.734 251.59C165.228 252.091 161.722 252.091 158.551 250.252C158.217 250.084 157.716 250.084 157.215 250.252C154.044 250.753 150.872 251.422 147.7 252.091C147.199 252.259 146.699 252.76 146.532 253.262C142.692 268.649 138.853 284.036 135.18 299.59C134.346 302.935 133.845 306.28 133.01 309.625C131.341 315.478 127.835 320.496 124.664 325.68C124.163 326.517 122.828 327.186 121.659 327.353C118.988 328.022 116.484 327.688 113.98 326.35C112.979 325.848 112.311 325.179 112.645 323.841C116.317 306.28 119.823 288.551 123.495 270.823C124.33 266.308 125.498 261.959 126.5 257.611ZM259.974 236.036C258.639 233.861 257.47 231.687 256.135 229.346C254.466 231.185 252.963 233.025 251.461 234.698C236.27 252.76 221.914 271.492 208.726 291.06C205.889 295.241 203.719 299.757 201.215 304.273C201.215 304.44 201.048 304.607 201.048 304.775C200.046 305.945 196.707 306.447 194.537 305.443C192.868 304.774 192.033 303.269 192.701 301.43C193.369 299.088 194.204 296.914 195.205 294.907C201.882 282.698 208.393 270.489 216.238 259.283C224.752 247.074 234.267 235.701 243.782 224.328C245.451 222.321 247.121 220.314 248.957 218.307C249.792 217.471 249.792 216.802 249.291 215.799C243.615 204.091 238.44 192.217 234.935 179.84C233.432 174.488 232.097 168.969 231.095 163.617C230.261 159.102 231.596 157.596 235.936 157.262C236.771 157.262 237.439 157.262 238.273 157.262C240.944 157.429 242.947 158.6 243.949 161.443C247.454 171.143 251.127 180.844 254.966 190.377C256.636 194.725 258.472 199.074 260.308 203.255C260.475 203.757 260.642 204.091 260.976 204.593C261.644 203.757 262.144 203.255 262.812 202.586C282.51 180.342 304.044 159.603 325.912 139.534C331.755 134.349 337.263 129.164 343.106 123.98C347.947 119.966 353.623 118.46 359.966 119.966C364.306 121.136 364.473 123.812 362.136 127.157C360.968 129.164 358.964 130.669 357.295 132.175C343.607 144.216 329.918 156.258 316.23 168.3C299.537 183.353 283.679 199.241 268.321 215.799C266.485 217.806 266.485 216.969 267.82 219.478C281.175 246.07 296.198 271.659 314.561 295.074C317.566 299.088 320.57 303.102 323.575 307.116C324.744 308.454 324.41 309.29 322.74 309.792C320.069 310.461 317.565 310.126 315.395 307.952C293.694 286.545 274.664 262.963 259.974 236.036Z"/>
</mask>
<path d="M126.5 257.611C126.5 257.276 126.5 256.942 126.667 256.44C121.659 257.443 116.818 258.614 111.977 259.785C107.971 260.621 103.964 261.625 99.958 262.795C98.9564 262.963 98.1218 263.632 97.2871 263.966C93.9485 264.635 90.7768 265.304 87.6051 264.301C87.4382 264.301 87.2712 264.301 87.2712 264.301C86.4365 263.632 85.7688 262.963 84.9342 262.294C85.6019 261.457 86.1027 260.454 86.9374 260.119C92.613 256.942 98.7895 255.102 105.133 253.429C112.478 251.59 119.99 249.75 127.502 247.91C128.503 247.576 129.004 247.074 129.338 246.071C130.506 240.719 132.009 235.367 133.01 230.015C133.511 228.008 133.177 225.666 132.843 223.492C130.172 208.941 121.659 199.241 107.971 193.889C100.292 190.879 92.4461 189.206 84.4334 187.534C79.9263 186.53 75.4191 185.192 70.912 183.854C69.4096 183.52 68.0742 182.684 66.9057 181.68C64.2348 179.673 63.567 176.83 65.4033 173.987C66.9056 171.812 68.7419 169.805 70.7451 168.133C77.0884 163.116 84.2665 159.436 91.4445 156.091C108.638 147.896 126.667 141.708 145.029 136.356C168.233 129.331 191.77 123.645 215.474 119.129C235.84 115.283 256.038 111.77 276.404 108.091C279.242 107.589 282.08 106.92 284.917 106.251C285.919 106.084 286.754 105.582 287.755 105.248C292.262 103.241 296.77 103.073 301.444 105.08C304.114 106.418 304.114 108.091 302.278 110.6C300.609 112.941 298.439 112.941 295.935 113.108C293.598 113.443 291.261 114.279 288.924 114.781C277.406 116.788 265.887 118.795 254.369 120.802C214.306 127.492 174.743 135.352 136.015 147.896C121.826 152.579 107.47 157.596 94.1154 164.453C89.6083 166.795 85.435 169.638 81.0948 172.314C79.9263 173.15 78.9247 174.321 78.09 175.325C76.2538 177.666 76.7546 179.506 79.4254 180.342C82.5971 181.513 85.7689 182.349 88.9405 183.018C97.454 185.192 106.134 187.032 114.481 190.377C121.158 193.053 127.669 196.398 132.51 201.917C134.513 204.258 136.182 206.934 138.018 209.61C138.686 207.269 139.354 204.76 139.854 202.252C143.694 187.534 147.199 172.649 152.04 158.098C153.042 155.255 154.377 152.244 155.546 149.401C156.381 146.725 158.384 145.554 160.888 145.554C162.891 145.554 165.061 145.722 166.897 146.223C169.568 147.06 170.069 148.23 169.568 150.906C168.4 156.426 167.231 161.945 166.063 167.631C165.395 170.307 165.061 172.983 164.393 175.659C163.559 179.339 162.39 183.018 161.555 186.865C157.382 205.095 153.376 223.325 149.203 241.555C149.036 241.889 149.036 242.391 148.869 242.893C150.204 242.726 151.373 242.391 152.541 242.224C160.387 240.719 168.066 239.213 175.912 237.875C179.417 237.206 182.923 237.206 186.428 238.21C187.597 238.712 188.932 239.381 189.934 240.217C191.269 241.388 191.269 242.726 189.767 243.896C189.099 244.398 188.431 244.9 187.764 245.234C181.587 248.245 175.411 250.753 168.734 251.59C165.228 252.091 161.722 252.091 158.551 250.252C158.217 250.084 157.716 250.084 157.215 250.252C154.044 250.753 150.872 251.422 147.7 252.091C147.199 252.259 146.699 252.76 146.532 253.262C142.692 268.649 138.853 284.036 135.18 299.59C134.346 302.935 133.845 306.28 133.01 309.625C131.341 315.478 127.835 320.496 124.664 325.68C124.163 326.517 122.828 327.186 121.659 327.353C118.988 328.022 116.484 327.688 113.98 326.35C112.979 325.848 112.311 325.179 112.645 323.841C116.317 306.28 119.823 288.551 123.495 270.823C124.33 266.308 125.498 261.959 126.5 257.611ZM259.974 236.036C258.639 233.861 257.47 231.687 256.135 229.346C254.466 231.185 252.963 233.025 251.461 234.698C236.27 252.76 221.914 271.492 208.726 291.06C205.889 295.241 203.719 299.757 201.215 304.273C201.215 304.44 201.048 304.607 201.048 304.775C200.046 305.945 196.707 306.447 194.537 305.443C192.868 304.774 192.033 303.269 192.701 301.43C193.369 299.088 194.204 296.914 195.205 294.907C201.882 282.698 208.393 270.489 216.238 259.283C224.752 247.074 234.267 235.701 243.782 224.328C245.451 222.321 247.121 220.314 248.957 218.307C249.792 217.471 249.792 216.802 249.291 215.799C243.615 204.091 238.44 192.217 234.935 179.84C233.432 174.488 232.097 168.969 231.095 163.617C230.261 159.102 231.596 157.596 235.936 157.262C236.771 157.262 237.439 157.262 238.273 157.262C240.944 157.429 242.947 158.6 243.949 161.443C247.454 171.143 251.127 180.844 254.966 190.377C256.636 194.725 258.472 199.074 260.308 203.255C260.475 203.757 260.642 204.091 260.976 204.593C261.644 203.757 262.144 203.255 262.812 202.586C282.51 180.342 304.044 159.603 325.912 139.534C331.755 134.349 337.263 129.164 343.106 123.98C347.947 119.966 353.623 118.46 359.966 119.966C364.306 121.136 364.473 123.812 362.136 127.157C360.968 129.164 358.964 130.669 357.295 132.175C343.607 144.216 329.918 156.258 316.23 168.3C299.537 183.353 283.679 199.241 268.321 215.799C266.485 217.806 266.485 216.969 267.82 219.478C281.175 246.07 296.198 271.659 314.561 295.074C317.566 299.088 320.57 303.102 323.575 307.116C324.744 308.454 324.41 309.29 322.74 309.792C320.069 310.461 317.565 310.126 315.395 307.952C293.694 286.545 274.664 262.963 259.974 236.036Z" fill="url(#paint0_linear_133_275)"/>
<path d="M126.5 257.611C126.5 257.276 126.5 256.942 126.667 256.44C121.659 257.443 116.818 258.614 111.977 259.785C107.971 260.621 103.964 261.625 99.958 262.795C98.9564 262.963 98.1218 263.632 97.2871 263.966C93.9485 264.635 90.7768 265.304 87.6051 264.301C87.4382 264.301 87.2712 264.301 87.2712 264.301C86.4365 263.632 85.7688 262.963 84.9342 262.294C85.6019 261.457 86.1027 260.454 86.9374 260.119C92.613 256.942 98.7895 255.102 105.133 253.429C112.478 251.59 119.99 249.75 127.502 247.91C128.503 247.576 129.004 247.074 129.338 246.071C130.506 240.719 132.009 235.367 133.01 230.015C133.511 228.008 133.177 225.666 132.843 223.492C130.172 208.941 121.659 199.241 107.971 193.889C100.292 190.879 92.4461 189.206 84.4334 187.534C79.9263 186.53 75.4191 185.192 70.912 183.854C69.4096 183.52 68.0742 182.684 66.9057 181.68C64.2348 179.673 63.567 176.83 65.4033 173.987C66.9056 171.812 68.7419 169.805 70.7451 168.133C77.0884 163.116 84.2665 159.436 91.4445 156.091C108.638 147.896 126.667 141.708 145.029 136.356C168.233 129.331 191.77 123.645 215.474 119.129C235.84 115.283 256.038 111.77 276.404 108.091C279.242 107.589 282.08 106.92 284.917 106.251C285.919 106.084 286.754 105.582 287.755 105.248C292.262 103.241 296.77 103.073 301.444 105.08C304.114 106.418 304.114 108.091 302.278 110.6C300.609 112.941 298.439 112.941 295.935 113.108C293.598 113.443 291.261 114.279 288.924 114.781C277.406 116.788 265.887 118.795 254.369 120.802C214.306 127.492 174.743 135.352 136.015 147.896C121.826 152.579 107.47 157.596 94.1154 164.453C89.6083 166.795 85.435 169.638 81.0948 172.314C79.9263 173.15 78.9247 174.321 78.09 175.325C76.2538 177.666 76.7546 179.506 79.4254 180.342C82.5971 181.513 85.7689 182.349 88.9405 183.018C97.454 185.192 106.134 187.032 114.481 190.377C121.158 193.053 127.669 196.398 132.51 201.917C134.513 204.258 136.182 206.934 138.018 209.61C138.686 207.269 139.354 204.76 139.854 202.252C143.694 187.534 147.199 172.649 152.04 158.098C153.042 155.255 154.377 152.244 155.546 149.401C156.381 146.725 158.384 145.554 160.888 145.554C162.891 145.554 165.061 145.722 166.897 146.223C169.568 147.06 170.069 148.23 169.568 150.906C168.4 156.426 167.231 161.945 166.063 167.631C165.395 170.307 165.061 172.983 164.393 175.659C163.559 179.339 162.39 183.018 161.555 186.865C157.382 205.095 153.376 223.325 149.203 241.555C149.036 241.889 149.036 242.391 148.869 242.893C150.204 242.726 151.373 242.391 152.541 242.224C160.387 240.719 168.066 239.213 175.912 237.875C179.417 237.206 182.923 237.206 186.428 238.21C187.597 238.712 188.932 239.381 189.934 240.217C191.269 241.388 191.269 242.726 189.767 243.896C189.099 244.398 188.431 244.9 187.764 245.234C181.587 248.245 175.411 250.753 168.734 251.59C165.228 252.091 161.722 252.091 158.551 250.252C158.217 250.084 157.716 250.084 157.215 250.252C154.044 250.753 150.872 251.422 147.7 252.091C147.199 252.259 146.699 252.76 146.532 253.262C142.692 268.649 138.853 284.036 135.18 299.59C134.346 302.935 133.845 306.28 133.01 309.625C131.341 315.478 127.835 320.496 124.664 325.68C124.163 326.517 122.828 327.186 121.659 327.353C118.988 328.022 116.484 327.688 113.98 326.35C112.979 325.848 112.311 325.179 112.645 323.841C116.317 306.28 119.823 288.551 123.495 270.823C124.33 266.308 125.498 261.959 126.5 257.611ZM259.974 236.036C258.639 233.861 257.47 231.687 256.135 229.346C254.466 231.185 252.963 233.025 251.461 234.698C236.27 252.76 221.914 271.492 208.726 291.06C205.889 295.241 203.719 299.757 201.215 304.273C201.215 304.44 201.048 304.607 201.048 304.775C200.046 305.945 196.707 306.447 194.537 305.443C192.868 304.774 192.033 303.269 192.701 301.43C193.369 299.088 194.204 296.914 195.205 294.907C201.882 282.698 208.393 270.489 216.238 259.283C224.752 247.074 234.267 235.701 243.782 224.328C245.451 222.321 247.121 220.314 248.957 218.307C249.792 217.471 249.792 216.802 249.291 215.799C243.615 204.091 238.44 192.217 234.935 179.84C233.432 174.488 232.097 168.969 231.095 163.617C230.261 159.102 231.596 157.596 235.936 157.262C236.771 157.262 237.439 157.262 238.273 157.262C240.944 157.429 242.947 158.6 243.949 161.443C247.454 171.143 251.127 180.844 254.966 190.377C256.636 194.725 258.472 199.074 260.308 203.255C260.475 203.757 260.642 204.091 260.976 204.593C261.644 203.757 262.144 203.255 262.812 202.586C282.51 180.342 304.044 159.603 325.912 139.534C331.755 134.349 337.263 129.164 343.106 123.98C347.947 119.966 353.623 118.46 359.966 119.966C364.306 121.136 364.473 123.812 362.136 127.157C360.968 129.164 358.964 130.669 357.295 132.175C343.607 144.216 329.918 156.258 316.23 168.3C299.537 183.353 283.679 199.241 268.321 215.799C266.485 217.806 266.485 216.969 267.82 219.478C281.175 246.07 296.198 271.659 314.561 295.074C317.566 299.088 320.57 303.102 323.575 307.116C324.744 308.454 324.41 309.29 322.74 309.792C320.069 310.461 317.565 310.126 315.395 307.952C293.694 286.545 274.664 262.963 259.974 236.036Z" stroke="url(#paint1_linear_133_275)" stroke-width="8" mask="url(#path-3-outside-1_133_275)"/>
</g>
</g>
<defs>
<filter id="filter0_b_133_275" x="-75" y="-75" width="578" height="578" filterUnits="userSpaceOnUse" color-interpolation-filters="sRGB">
<feFlood flood-opacity="0" result="BackgroundImageFix"/>
<feGaussianBlur in="BackgroundImageFix" stdDeviation="37.5"/>
<feComposite in2="SourceAlpha" operator="in" result="effect1_backgroundBlur_133_275"/>
<feBlend mode="normal" in="SourceGraphic" in2="effect1_backgroundBlur_133_275" result="shape"/>
</filter>
<filter id="filter1_d_133_275" x="27.3663" y="66.6562" width="373.268" height="298.031" filterUnits="userSpaceOnUse" color-interpolation-filters="sRGB">
<feFlood flood-opacity="0" result="BackgroundImageFix"/>
<feColorMatrix in="SourceAlpha" type="matrix" values="0 0 0 0 0 0 0 0 0 0 0 0 0 0 0 0 0 0 127 0" result="hardAlpha"/>
<feOffset/>
<feGaussianBlur stdDeviation="16.5"/>
<feComposite in2="hardAlpha" operator="out"/>
<feColorMatrix type="matrix" values="0 0 0 0 0 0 0 0 0 0 0 0 0 0 0 0 0 0 0.75 0"/>
<feBlend mode="normal" in2="BackgroundImageFix" result="effect1_dropShadow_133_275"/>
<feBlend mode="normal" in="SourceGraphic" in2="effect1_dropShadow_133_275" result="shape"/>
</filter>
<linearGradient id="paint0_linear_133_275" x1="214" y1="103.656" x2="214" y2="327.688" gradientUnits="userSpaceOnUse">
<stop stop-color="#00FEE0"/>
<stop offset="1" stop-color="#00FEBC"/>
</linearGradient>
<linearGradient id="paint1_linear_133_275" x1="21.5" y1="14" x2="409" y2="412" gradientUnits="userSpaceOnUse">
<stop offset="0.00180024" stop-color="#00FEE0"/>
<stop offset="1" stop-color="#00FEBC"/>
</linearGradient>
</defs>
</svg>
