<svg width="96" height="96" viewBox="0 0 96 96" fill="none" xmlns="http://www.w3.org/2000/svg">
<path fill-rule="evenodd" clip-rule="evenodd" d="M48 0C74.5104 0 96 22.0317 96 49.2141C96 70.9533 82.2624 89.395 63.2016 95.9086C60.768 96.3934 59.904 94.8565 59.904 93.5461C59.904 91.9237 59.9616 86.6247 59.9616 80.0391C59.9616 75.4503 58.4256 72.4553 56.7024 70.9289C67.392 69.7097 78.624 65.5477 78.624 46.6453C78.624 41.2693 76.7616 36.8823 73.68 33.4359C74.1792 32.1927 75.8256 27.187 73.2096 20.4094C73.2096 20.4094 69.1872 19.0907 60.024 25.4555C56.1888 24.3659 52.08 23.8176 48 23.7984C43.92 23.8176 39.816 24.3659 35.9856 25.4555C26.8128 19.0907 22.7808 20.4094 22.7808 20.4094C20.1744 27.187 21.8208 32.1927 22.3152 33.4359C19.248 36.8823 17.3712 41.2693 17.3712 46.6453C17.3712 65.4997 28.5792 69.7255 39.24 70.9687C37.8672 72.1975 36.624 74.3653 36.192 77.5477C33.456 78.8053 26.5056 80.9818 22.224 73.4602C22.224 73.4602 19.6848 68.7315 14.8656 68.3859C14.8656 68.3859 10.1856 68.3238 14.5392 71.3766C14.5392 71.3766 17.6832 72.8886 19.8672 78.5766C19.8672 78.5766 22.6848 87.3604 36.0384 84.3844C36.0624 88.498 36.1056 92.3749 36.1056 93.5461C36.1056 94.8469 35.2224 96.3693 32.8272 95.9133C13.752 89.4093 0 70.9581 0 49.2141C0 22.0317 21.4944 0 48 0Z" fill="#F4F4F4"/>
</svg>
